<?xml version="1.0" encoding="UTF-8" standalone="no"?>
<svg
        xmlns:dc="http://purl.org/dc/elements/1.1/"
        xmlns:cc="http://creativecommons.org/ns#"
        xmlns:rdf="http://www.w3.org/1999/02/22-rdf-syntax-ns#"
        xmlns:sodipodi="http://sodipodi.sourceforge.net/DTD/sodipodi-0.dtd"
        xmlns:inkscape="http://www.inkscape.org/namespaces/inkscape"
        xmlns="http://www.w3.org/2000/svg"
        version="1.1"
        width="48"
        height="48"
        id="svg49"
        sodipodi:docname="icon_nobg.svg"
        inkscape:version="0.92.3 (2405546, 2018-03-11)"
        inkscape:export-filename="/home/t/Programming/Workspace/Python/SecretSanta/static/favicon/favicon-no-bg-16x16.png"
        inkscape:export-xdpi="34.91"
        inkscape:export-ydpi="34.91">
    <metadata
            id="metadata53">
        <rdf:RDF>
            <cc:Work
                    rdf:about="">
                <dc:format>image/svg+xml</dc:format>
                <dc:type
                        rdf:resource="http://purl.org/dc/dcmitype/StillImage"/>
                <dc:title></dc:title>
            </cc:Work>
        </rdf:RDF>
    </metadata>
    <sodipodi:namedview
            pagecolor="#ffffff"
            bordercolor="#666666"
            borderopacity="1"
            objecttolerance="10"
            gridtolerance="10"
            guidetolerance="10"
            inkscape:pageopacity="0"
            inkscape:pageshadow="2"
            inkscape:window-width="1600"
            inkscape:window-height="835"
            id="namedview51"
            showgrid="false"
            inkscape:zoom="11.313709"
            inkscape:cx="0.37366908"
            inkscape:cy="25.689185"
            inkscape:window-x="0"
            inkscape:window-y="36"
            inkscape:window-maximized="1"
            inkscape:current-layer="g47"/>
    <defs
            id="defs25">
        <linearGradient
                x1="17.16092"
                y1="14.22989"
                x2="52.05228"
                y2="54.98331"
                gradientUnits="userSpaceOnUse"
                id="color-1">
            <stop
                    offset="0"
                    stop-color="#000000"
                    stop-opacity="0.19"
                    id="stop2"/>
            <stop
                    offset="1"
                    stop-color="#000000"
                    stop-opacity="0"
                    id="stop4"/>
        </linearGradient>
        <filter
                id="dropshadow-base">
            <feColorMatrix
                    type="matrix"
                    values="0 0 0 0 0  0 0 0 0 0  0 0 0 0 0  0 0 0 .8 0"
                    id="feColorMatrix7"/>
            <feOffset
                    dx="0"
                    dy="1"
                    id="feOffset9"/>
            <feGaussianBlur
                    stdDeviation="1"
                    id="feGaussianBlur11"
                    result="result1"/>
            <feComposite
                    in="SourceGraphic"
                    in2="result1"
                    id="feComposite13"/>
        </filter>
        <filter
                id="dropshadow-banner"
                x="-10%"
                y="-10%"
                width="120%"
                height="130%">
            <feColorMatrix
                    type="matrix"
                    values="0 0 0 0 0  0 0 0 0 0  0 0 0 0 0  0 0 0 .4 0"
                    id="feColorMatrix16"/>
            <feOffset
                    dx="0"
                    dy="1"
                    id="feOffset18"/>
            <feGaussianBlur
                    stdDeviation="0.5"
                    id="feGaussianBlur20"
                    result="result1"/>
            <feComposite
                    in="SourceGraphic"
                    in2="result1"
                    id="feComposite22"/>
        </filter>
        <filter
                style="color-interpolation-filters:sRGB;"
                inkscape:label="Drop Shadow"
                id="filter6187">
            <feFlood
                    flood-opacity="0.733333"
                    flood-color="rgb(0,0,0)"
                    result="flood"
                    id="feFlood6177"/>
            <feComposite
                    in="flood"
                    in2="SourceGraphic"
                    operator="in"
                    result="composite1"
                    id="feComposite6179"/>
            <feGaussianBlur
                    in="composite1"
                    stdDeviation="0.6"
                    result="blur"
                    id="feGaussianBlur6181"/>
            <feOffset
                    dx="4.57967e-15"
                    dy="0.2"
                    result="offset"
                    id="feOffset6183"/>
            <feComposite
                    in="offset"
                    in2="offset"
                    operator="atop"
                    result="composite2"
                    id="feComposite6185"/>
        </filter>
    </defs>
    <g
            fill="none"
            fill-rule="nonzero"
            stroke="none"
            stroke-width="none"
            stroke-linecap="butt"
            stroke-linejoin="miter"
            stroke-miterlimit="10"
            stroke-dasharray=""
            stroke-dashoffset="0"
            font-family="none"
            font-weight="none"
            font-size="none"
            text-anchor="none"
            style="mix-blend-mode: normal"
            id="g47">
        <path
                inkscape:connector-curvature="0"
                d="m 7.6769192,43.1719 c -1.050435,0 -1.7457301,-1.190111 -1.7457301,-2.2727 V 7.5758 c 0,-1.0825891 0.8515451,-1.9602 1.9019801,-1.9602 H 40.166831 c 1.050435,0 1.90198,0.8776109 1.90198,1.9602 v 33.3234 c 0,1.082589 -0.882795,2.2727 -1.93323,2.2727 z"
                id="base 1 5-7"
                style="mix-blend-mode:normal;fill:#e81f17;fill-opacity:0.03015075;stroke-width:0.96543533;filter:url(#filter6187)"
                sodipodi:nodetypes="sssssssss"/>
        <path
                inkscape:connector-curvature="0"
                d="m 6.987067,43.316564 c -1.1045699,3.86e-4 -2,-0.89543 -2,-2 V 7.3165638 c 0,-1.10457 0.89543,-2 2,-2 h 34 c 1.10457,0 2,0.89543 2,2 V 41.316564 c 0,1.10457 -1.368086,1.987895 -2.472656,1.988281 z"
                id="base 1 5-5"
                style="mix-blend-mode:normal;fill:#b71c1c;fill-opacity:0;stroke-width:1"
                sodipodi:nodetypes="sssssssss"/>
        <path
                inkscape:connector-curvature="0"
                d="m 6.9375001,42.7275 c -1.10457,0 -1.9435359,-0.895431 -1.9453125,-2 L 4.9375001,6.7274999 c -0.00178,-1.1045686 0.89543,-2 2,-2 H 40.9375 c 1.10457,0 2.056465,0.9188689 2.054687,2.0234375 L 42.9375,40.7275 c -0.0018,1.104569 -0.89543,2 -2,2 z"
                id="base 1 5-6"
                style="mix-blend-mode:normal;fill:#ef9a9a;fill-opacity:0;stroke-width:1"
                sodipodi:nodetypes="sssssssss"/>
        <path
                d="M 7,43 C 5.89543,43 4.9856615,42.120194 4.984375,41.015625 L 4.9447573,7 C 4.9434708,5.8954307 5.89543,5 7,5 h 34 c 1.10457,0 2,0.89543 2,2 v 34 c 0,1.10457 -1.422774,2 -2.527344,2 z"
                id="base 1 5"
                style="fill:#d32f2f;fill-opacity:0;stroke-width:1"
                inkscape:connector-curvature="0"
                sodipodi:nodetypes="sssssssss"/>
        <path
                d="m 24.214692,10.289391 18.781402,14.103775 -0.0078,16.634178 c -5.18e-4,1.104569 -1.466394,1.979475 -2.570963,1.977903 L 24.89784,42.998775 12.734786,33.971736 c 30.249589,-7.262163 3.723617,-2.051882 11.479906,-23.682345 z"
                id="path28"
                inkscape:connector-curvature="0"
                style="fill:#000000;stroke-width:1;opacity:1;fill-opacity:0"
                sodipodi:nodetypes="ccssccc"/>
        <path
                d="M22.04598,16.18391c0,-1.07918 0.87485,-1.95402 1.95402,-1.95402c1.07918,0 1.95402,0.87485 1.95402,1.95402c0,1.07918 -0.87485,1.95402 -1.95402,1.95402c-1.07918,0 -1.95402,-0.87485 -1.95402,-1.95402zM25.95402,23.07184v3.37069h2.93103c1.0796,0 1.95402,0.87442 1.95402,1.95402v5.37356h-1.95402v-4.88505h-4.88505c-1.0796,0 -1.95402,-0.87442 -1.95402,-1.95402v-5.77413c0,-1.02098 0.74741,-1.93448 1.7635,-2.03218c0.425,-0.04397 0.82557,0.05374 1.16264,0.24914h0.00977c0.00489,0.00489 0.00977,0.00977 0.01954,0.01466c0.21983,0.11236 0.425,0.25891 0.59598,0.44454l1.26523,1.39713c0.95747,1.06006 2.47672,1.81236 3.97643,1.79282v1.95402c-1.71465,-0.00489 -3.62471,-0.86465 -4.88505,-1.90517zM26.83333,29.86207c-0.45431,2.22758 -2.42299,3.90804 -4.78735,3.90804c-2.69655,0 -4.88505,-2.1885 -4.88505,-4.88505c0,-2.36437 1.68046,-4.33304 3.90804,-4.78735v2.0273c-1.13822,0.40057 -1.95402,1.48506 -1.95402,2.76006c0,1.61695 1.31408,2.93103 2.93103,2.93103c1.275,0 2.35948,-0.8158 2.76006,-1.95402z"
                fill="none"
                stroke-width="0"
                id="path30"/>
        <path
                d="M2,24c0,-12.15026 9.84974,-22 22,-22c12.15026,0 22,9.84974 22,22c0,12.15026 -9.84974,22 -22,22c-12.15026,0 -22,-9.84974 -22,-22z"
                id="base 1 1 1"
                fill="none"
                stroke-width="1"/>
        <g
                fill="#000000"
                stroke-width="1"
                font-family="Roboto, sans-serif"
                font-weight="400"
                font-size="14"
                text-anchor="start"
                id="g35"/>
        <rect
                x="2"
                y="2"
                width="44"
                height="22"
                fill="none"
                stroke-width="1"
                id="rect37"/>
        <path
                d="M2,24v-22h44v22z"
                fill="none"
                stroke-width="1"
                id="path39"/>
        <path
                d="M2,24v-22h44v22z"
                fill="none"
                stroke-width="1"
                id="path41"/>
        <path
                d="M2,24v-22h44v22z"
                fill="none"
                stroke-width="1"
                id="path43"/>
        <path
                d="M2,24v-22h44v22z"
                fill="none"
                stroke-width="1"
                id="path45"/>
        <g
                id="g4433"
                transform="matrix(0.225,0,0,0.225,9.6274109,9.268735)">
            <path
                    id="path4281"
                    d="M 71.43,124.17 H 56.77 c -2.17,0 -3.62,-2.23 -2.75,-4.21 l 4.88,-11.09 c 0.48,-1.09 1.56,-1.79 2.75,-1.79 h 4.87 c 1.19,0 2.26,0.7 2.74,1.78 l 4.91,11.09 c 0.88,1.98 -0.57,4.22 -2.74,4.22 z"
                    inkscape:connector-curvature="0"
                    style="fill:#6d4c41"/>
            <g
                    id="g4285"
                    style="opacity:0.2">
                <path
                        id="path4283"
                        d="m 66.52,110.08 4.91,11.09 H 56.76 l 4.88,-11.09 h 4.88 m 1.95,-3 h -8.78 l -5.67,12.88 c -0.87,1.98 0.58,4.21 2.75,4.21 h 14.67 c 2.17,0 3.62,-2.23 2.74,-4.22 z"
                        inkscape:connector-curvature="0"
                        style="fill:#424242"/>
            </g>
            <path
                    id="path4287"
                    d="m 64.09,116.01 c -54.67,0 -52.56,-8.29 -51.46,-9.83 8.03,-6.55 14.73,-14.58 19.74,-23.66 l 0.53,-0.96 c 0.44,-0.62 1.15,-0.98 1.91,-0.98 l 59.52,0.11 c 0.76,0 1.48,0.38 1.91,1.01 4.88,9.38 11.56,17.7 19.66,24.5 l 0.01,0.01 c 1.05,1.54 2.85,9.8 -51.82,9.8 z"
                    inkscape:connector-curvature="0"
                    style="fill:#2e7d32"/>
            <path
                    id="path4289"
                    d="m 64,90.29 c -45.1,0 -44.84,-7.77 -43.74,-9.31 8.59,-7.36 15.95,-16.04 21.81,-25.71 l 3.22,-5.32 c 0.43,-0.61 1.13,-0.97 1.88,-0.98 l 33.81,-0.21 c 0.76,0 1.47,0.36 1.91,0.97 l 3.24,5.31 c 5.94,9.75 13.38,18.5 22.05,25.93 1.09,1.55 0.92,9.32 -44.18,9.32 z"
                    inkscape:connector-curvature="0"
                    style="fill:#388e3c"/>
            <path
                    id="path4291"
                    d="m 63.9,65.9 c -36.92,0 -36.65,-6.78 -35.27,-8.43 8.51,-5.54 15.81,-12.64 21.5,-20.89 l 1.23,-1.78 c 0.49,-0.59 1.23,-0.93 2.02,-0.93 h 21.6 c 0.78,0 1.52,0.34 2.02,0.93 l 0.81,1.2 c 5.77,8.47 13.19,15.77 21.85,21.48 1.38,1.64 1.15,8.42 -35.76,8.42 z"
                    inkscape:connector-curvature="0"
                    style="fill:#43a047"/>
            <path
                    id="path4293"
                    d="m 64.04,44.14 c -25.64,0 -28.72,-5.03 -27.33,-6.6 9.13,-5.71 16.88,-12.83 22.82,-20.99 l 2.45,-3.36 c 1.13,-1.27 3.39,-1.27 4.53,0 l 1.22,1.7 c 6.29,8.76 14.49,16.45 24.16,22.65 1.39,1.57 -2.21,6.6 -27.85,6.6 z"
                    inkscape:connector-curvature="0"
                    style="fill:#4caf50"/>
            <g
                    id="g4297"
                    style="opacity:0.2">
                <path
                        id="path4295"
                        d="m 64.24,15.24 h 0.04 l 1,1.4 c 5.97,8.32 13.5,15.62 22.41,21.72 -1.04,0.44 -2.69,0.98 -5.25,1.46 -1.05,0.2 -1.92,0.94 -2.27,1.95 -0.36,1.01 -0.15,2.13 0.55,2.95 4.58,5.37 9.83,10.12 15.61,14.14 -0.78,0.49 -2.28,1.18 -5.09,1.86 -0.98,0.24 -1.78,0.95 -2.12,1.9 -0.34,0.95 -0.18,2.01 0.42,2.81 4.57,6.1 9.72,11.7 15.35,16.68 -0.77,0.57 -2.48,1.48 -6.1,2.39 -0.93,0.23 -1.7,0.9 -2.05,1.79 -0.36,0.89 -0.27,1.9 0.25,2.72 4.36,6.93 9.66,13.13 15.77,18.47 -1.97,1.47 -10.84,5.53 -48.68,5.53 -37.65,0 -46.43,-4.04 -48.38,-5.49 6.2,-5.25 11.62,-11.4 16.1,-18.3 0.53,-0.82 0.63,-1.84 0.27,-2.75 -0.36,-0.91 -1.14,-1.58 -2.09,-1.81 -3.96,-0.94 -5.76,-1.92 -6.53,-2.5 5.61,-4.97 10.76,-10.57 15.3,-16.66 0.6,-0.81 0.76,-1.87 0.41,-2.82 -0.35,-0.95 -1.15,-1.66 -2.13,-1.89 -2.89,-0.68 -4.4,-1.39 -5.17,-1.88 5.87,-4.02 11.16,-8.78 15.77,-14.18 0.69,-0.81 0.9,-1.94 0.55,-2.94 -0.36,-1.01 -1.22,-1.75 -2.27,-1.95 -2.47,-0.47 -4.06,-0.98 -5.07,-1.41 8.38,-5.63 15.47,-12.38 21.11,-20.12 l 2.24,-3.08 c 0.02,0.01 0.04,0.01 0.05,0.01 m 0,-3 c -0.85,0 -1.7,0.32 -2.26,0.95 l -2.45,3.36 c -5.95,8.16 -13.69,15.29 -22.82,20.99 -0.93,1.05 0.15,3.65 8.65,5.25 -4.81,5.63 -10.44,10.58 -16.72,14.68 -0.87,1.03 -1.29,4.11 7.72,6.24 -4.71,6.32 -10.1,12.12 -16.1,17.27 -0.67,0.94 -1.03,4.2 9.05,6.6 -4.56,7.01 -10.17,13.3 -16.68,18.6 -1.09,1.54 -3.2,9.83 51.46,9.83 54.67,0 52.87,-8.26 51.8,-9.81 l -0.01,-0.01 c -6.41,-5.38 -11.91,-11.73 -16.35,-18.79 9.5,-2.38 9.29,-5.51 8.64,-6.43 -6.03,-5.18 -11.46,-11 -16.21,-17.35 8.79,-2.13 8.56,-5.13 7.7,-6.15 C 93.4,53.35 87.81,48.39 83,42.77 91.52,41.16 92.81,38.59 91.88,37.54 82.21,31.34 74.01,23.65 67.72,14.89 l -1.22,-1.7 c -0.56,-0.64 -1.41,-0.95 -2.26,-0.95 z"
                        inkscape:connector-curvature="0"
                        style="fill:#424242"/>
            </g>
            <path
                    id="path4299"
                    d="m 65.37,5.12 2.21,4.48 c 0.19,0.39 0.56,0.66 0.99,0.72 l 4.95,0.72 c 1.08,0.16 1.51,1.49 0.73,2.25 l -3.58,3.49 c -0.31,0.3 -0.45,0.74 -0.38,1.17 l 0.85,4.93 c 0.18,1.08 -0.95,1.9 -1.91,1.39 L 64.8,21.94 c -0.38,-0.2 -0.84,-0.2 -1.23,0 l -4.43,2.33 c -0.97,0.51 -2.1,-0.31 -1.91,-1.39 l 0.85,-4.93 C 58.15,17.52 58.01,17.09 57.7,16.78 L 54.12,13.29 C 53.34,12.53 53.77,11.2 54.85,11.04 L 59.8,10.32 C 60.23,10.26 60.6,9.99 60.79,9.6 L 63,5.12 c 0.49,-0.98 1.89,-0.98 2.37,0 z"
                    inkscape:connector-curvature="0"
                    style="fill:#ffeb3b"/>
            <g
                    id="g4303"
                    style="opacity:0.2">
                <path
                        id="path4301"
                        d="m 64.19,7.24 1.6,3.24 c 0.48,0.98 1.42,1.66 2.5,1.81 l 3.58,0.52 -2.59,2.52 c -0.78,0.76 -1.14,1.86 -0.95,2.94 l 0.61,3.57 -3.2,-1.68 c -0.47,-0.25 -1.01,-0.38 -1.54,-0.38 -0.54,0 -1.07,0.13 -1.54,0.38 l -3.2,1.68 0.61,-3.57 C 60.25,17.19 59.9,16.1 59.12,15.33 l -2.59,-2.52 3.58,-0.52 c 1.08,-0.16 2.01,-0.84 2.5,-1.81 l 1.58,-3.24 m 0,-2.86 c -0.47,0 -0.94,0.24 -1.18,0.73 L 60.8,9.6 c -0.19,0.39 -0.56,0.66 -0.99,0.72 l -4.95,0.72 c -1.08,0.16 -1.51,1.49 -0.73,2.25 l 3.58,3.49 c 0.31,0.3 0.45,0.74 0.38,1.17 l -0.85,4.93 c -0.15,0.85 0.53,1.54 1.3,1.54 0.2,0 0.41,-0.05 0.61,-0.15 l 4.43,-2.33 c 0.19,-0.1 0.4,-0.15 0.61,-0.15 0.21,0 0.42,0.05 0.61,0.15 l 4.43,2.33 c 0.2,0.11 0.41,0.15 0.61,0.15 0.77,0 1.44,-0.69 1.3,-1.54 l -0.85,-4.93 c -0.07,-0.43 0.07,-0.86 0.38,-1.17 l 3.58,-3.49 C 75.03,12.53 74.6,11.2 73.52,11.04 L 68.57,10.32 C 68.14,10.26 67.77,9.99 67.58,9.6 L 65.37,5.12 C 65.13,4.63 64.66,4.38 64.19,4.38 Z"
                        inkscape:connector-curvature="0"
                        style="fill:#424242"/>
            </g>
            <circle
                    id="circle4305"
                    r="5"
                    cy="76.080002"
                    cx="85.419998"
                    style="fill:#f44336"/>
            <g
                    id="g4309"
                    style="opacity:0.2">
                <path
                        id="path4307"
                        d="m 85.42,73.08 c 1.65,0 3,1.35 3,3 0,1.65 -1.35,3 -3,3 -1.65,0 -3,-1.35 -3,-3 0,-1.65 1.34,-3 3,-3 m 0,-2 c -2.76,0 -5,2.24 -5,5 0,2.76 2.24,5 5,5 2.76,0 5,-2.24 5,-5 0,-2.76 -2.24,-5 -5,-5 z"
                        inkscape:connector-curvature="0"
                        style="fill:#424242"/>
            </g>
            <circle
                    id="circle4311"
                    r="5"
                    cy="76.080002"
                    cx="45.419998"
                    style="fill:#f44336"/>
            <g
                    id="g4315"
                    style="opacity:0.2">
                <path
                        id="path4313"
                        d="m 45.42,73.08 c 1.65,0 3,1.35 3,3 0,1.65 -1.35,3 -3,3 -1.65,0 -3,-1.35 -3,-3 0,-1.65 1.34,-3 3,-3 m 0,-2 c -2.76,0 -5,2.24 -5,5 0,2.76 2.24,5 5,5 2.76,0 5,-2.24 5,-5 0,-2.76 -2.24,-5 -5,-5 z"
                        inkscape:connector-curvature="0"
                        style="fill:#424242"/>
            </g>
            <circle
                    id="circle4317"
                    r="5"
                    cy="99.080002"
                    cx="53.419998"
                    style="fill:#f44336"/>
            <g
                    id="g4321"
                    style="opacity:0.2">
                <path
                        id="path4319"
                        d="m 53.42,96.08 c 1.65,0 3,1.35 3,3 0,1.65 -1.35,3 -3,3 -1.65,0 -3,-1.35 -3,-3 0,-1.65 1.34,-3 3,-3 m 0,-2 c -2.76,0 -5,2.24 -5,5 0,2.76 2.24,5 5,5 2.76,0 5,-2.24 5,-5 0,-2.76 -2.24,-5 -5,-5 z"
                        inkscape:connector-curvature="0"
                        style="fill:#424242"/>
            </g>
            <circle
                    id="circle4323"
                    r="5"
                    cy="53.080002"
                    cx="62.419998"
                    style="fill:#f44336"/>
            <g
                    id="g4327"
                    style="opacity:0.2">
                <path
                        id="path4325"
                        d="m 62.42,50.08 c 1.65,0 3,1.35 3,3 0,1.65 -1.35,3 -3,3 -1.65,0 -3,-1.35 -3,-3 0,-1.65 1.34,-3 3,-3 m 0,-2 c -2.76,0 -5,2.24 -5,5 0,2.76 2.24,5 5,5 2.76,0 5,-2.24 5,-5 0,-2.76 -2.24,-5 -5,-5 z"
                        inkscape:connector-curvature="0"
                        style="fill:#424242"/>
            </g>
            <circle
                    id="circle4329"
                    r="4"
                    cy="35.080002"
                    cx="71.419998"
                    style="fill:#f44336"/>
            <g
                    id="g4333"
                    style="opacity:0.2">
                <path
                        id="path4331"
                        d="m 71.42,33.08 c 1.1,0 2,0.9 2,2 0,1.1 -0.9,2 -2,2 -1.1,0 -2,-0.9 -2,-2 0,-1.1 0.89,-2 2,-2 m 0,-2 c -2.21,0 -4,1.79 -4,4 0,2.21 1.79,4 4,4 2.21,0 4,-1.79 4,-4 0,-2.21 -1.79,-4 -4,-4 z"
                        inkscape:connector-curvature="0"
                        style="fill:#424242"/>
            </g>
            <circle
                    id="circle4335"
                    r="4"
                    cy="105.08"
                    cx="74.419998"
                    style="fill:#f44336"/>
            <g
                    id="g4339"
                    style="opacity:0.2">
                <path
                        id="path4337"
                        d="m 74.42,103.08 c 1.1,0 2,0.9 2,2 0,1.1 -0.9,2 -2,2 -1.1,0 -2,-0.9 -2,-2 0,-1.1 0.89,-2 2,-2 m 0,-2 c -2.21,0 -4,1.79 -4,4 0,2.21 1.79,4 4,4 2.21,0 4,-1.79 4,-4 0,-2.21 -1.79,-4 -4,-4 z"
                        inkscape:connector-curvature="0"
                        style="fill:#424242"/>
            </g>
            <circle
                    id="circle4341"
                    r="4"
                    cy="58.080002"
                    cx="47.419998"
                    style="fill:#ffee58"/>
            <g
                    id="g4345"
                    style="opacity:0.2">
                <path
                        id="path4343"
                        d="m 47.42,56.08 c 1.1,0 2,0.9 2,2 0,1.1 -0.9,2 -2,2 -1.1,0 -2,-0.9 -2,-2 0,-1.1 0.89,-2 2,-2 m 0,-2 c -2.21,0 -4,1.79 -4,4 0,2.21 1.79,4 4,4 2.21,0 4,-1.79 4,-4 0,-2.21 -1.79,-4 -4,-4 z"
                        inkscape:connector-curvature="0"
                        style="fill:#424242"/>
            </g>
            <circle
                    id="circle4347"
                    r="4"
                    cy="82.080002"
                    cx="66.419998"
                    style="fill:#ffeb3b"/>
            <g
                    id="g4351"
                    style="opacity:0.2">
                <path
                        id="path4349"
                        d="m 66.42,80.08 c 1.1,0 2,0.9 2,2 0,1.1 -0.9,2 -2,2 -1.1,0 -2,-0.9 -2,-2 0,-1.1 0.89,-2 2,-2 m 0,-2 c -2.21,0 -4,1.79 -4,4 0,2.21 1.79,4 4,4 2.21,0 4,-1.79 4,-4 0,-2.21 -1.79,-4 -4,-4 z"
                        inkscape:connector-curvature="0"
                        style="fill:#424242"/>
            </g>
            <circle
                    id="circle4353"
                    r="4"
                    cy="97.080002"
                    cx="91.419998"
                    style="fill:#ffeb3b"/>
            <g
                    id="g4357"
                    style="opacity:0.2">
                <path
                        id="path4355"
                        d="m 91.42,95.08 c 1.1,0 2,0.9 2,2 0,1.1 -0.9,2 -2,2 -1.1,0 -2,-0.9 -2,-2 0,-1.1 0.89,-2 2,-2 m 0,-2 c -2.21,0 -4,1.79 -4,4 0,2.21 1.79,4 4,4 2.21,0 4,-1.79 4,-4 0,-2.21 -1.79,-4 -4,-4 z"
                        inkscape:connector-curvature="0"
                        style="fill:#424242"/>
            </g>
            <circle
                    id="circle4359"
                    r="4"
                    cy="103.08"
                    cx="34.419998"
                    style="fill:#ffeb3b"/>
            <g
                    id="g4363"
                    style="opacity:0.2">
                <path
                        id="path4361"
                        d="m 34.42,101.08 c 1.1,0 2,0.9 2,2 0,1.1 -0.9,2 -2,2 -1.1,0 -2,-0.9 -2,-2 0,-1.1 0.89,-2 2,-2 m 0,-2 c -2.21,0 -4,1.79 -4,4 0,2.21 1.79,4 4,4 2.21,0 4,-1.79 4,-4 0,-2.21 -1.79,-4 -4,-4 z"
                        inkscape:connector-curvature="0"
                        style="fill:#424242"/>
            </g>
            <circle
                    id="circle4365"
                    r="4"
                    cy="58.080002"
                    cx="80.419998"
                    style="fill:#ffee58"/>
            <g
                    id="g4369"
                    style="opacity:0.2">
                <path
                        id="path4367"
                        d="m 80.42,56.08 c 1.1,0 2,0.9 2,2 0,1.1 -0.9,2 -2,2 -1.1,0 -2,-0.9 -2,-2 0,-1.1 0.89,-2 2,-2 m 0,-2 c -2.21,0 -4,1.79 -4,4 0,2.21 1.79,4 4,4 2.21,0 4,-1.79 4,-4 0,-2.21 -1.79,-4 -4,-4 z"
                        inkscape:connector-curvature="0"
                        style="fill:#424242"/>
            </g>
            <circle
                    id="circle4371"
                    r="4"
                    cy="36.080002"
                    cx="56.419998"
                    style="fill:#ffee58"/>
            <g
                    id="g4375"
                    style="opacity:0.2">
                <path
                        id="path4373"
                        d="m 56.42,34.08 c 1.1,0 2,0.9 2,2 0,1.1 -0.9,2 -2,2 -1.1,0 -2,-0.9 -2,-2 0,-1.1 0.89,-2 2,-2 m 0,-2 c -2.21,0 -4,1.79 -4,4 0,2.21 1.79,4 4,4 2.21,0 4,-1.79 4,-4 0,-2.21 -1.79,-4 -4,-4 z"
                        inkscape:connector-curvature="0"
                        style="fill:#424242"/>
            </g>
        </g>
    </g>
</svg>
